<svg width="17" height="33" viewBox="0 0 17 33" fill="none" xmlns="http://www.w3.org/2000/svg">
    <path d="M2.125 6.90011C2.125 5.20269 2.79665 3.5748 3.9922 2.37455C5.18774 1.17429 6.80925 0.5 8.5 0.5C10.1908 0.5 11.8123 1.17429 13.0078 2.37455C14.2033 3.5748 14.875 5.20269 14.875 6.90011V18.3222C15.957 19.5538 16.662 21.0728 16.9054 22.6968C17.1488 24.3207 16.9202 25.9807 16.2472 27.4775C15.5742 28.9743 14.4852 30.2444 13.1111 31.1352C11.7369 32.0261 10.1358 32.5 8.5 32.5C6.8642 32.5 5.26314 32.0261 3.88895 31.1352C2.51476 30.2444 1.42581 28.9743 0.752783 27.4775C0.079752 25.9807 -0.148774 24.3207 0.094629 22.6968C0.338031 21.0728 1.04302 19.5538 2.125 18.3222V6.90011ZM8.5 3.70005C7.65462 3.70005 6.84387 4.0372 6.2461 4.63733C5.64833 5.23745 5.3125 6.0514 5.3125 6.90011V19.647L4.82375 20.1163C4.05863 20.8531 3.53057 21.8028 3.3075 22.8433C3.08443 23.8838 3.17655 24.9675 3.57201 25.955C3.96748 26.9425 4.64819 27.7886 5.5266 28.3845C6.405 28.9805 7.44091 29.2989 8.50106 29.2989C9.56122 29.2989 10.5971 28.9805 11.4755 28.3845C12.3539 27.7886 13.0346 26.9425 13.4301 25.955C13.8256 24.9675 13.9177 23.8838 13.6946 22.8433C13.4716 21.8028 12.9435 20.8531 12.1784 20.1163L11.6875 19.6491V6.90011C11.6875 6.0514 11.3517 5.23745 10.7539 4.63733C10.1561 4.0372 9.34538 3.70005 8.5 3.70005ZM9.5625 12.2335C9.5625 11.9506 9.45056 11.6793 9.2513 11.4793C9.05204 11.2792 8.78179 11.1668 8.5 11.1668C8.21821 11.1668 7.94796 11.2792 7.7487 11.4793C7.54944 11.6793 7.4375 11.9506 7.4375 12.2335V20.9483C6.72859 21.2 6.1311 21.6951 5.75064 22.3462C5.37019 22.9973 5.23126 23.7625 5.35841 24.5065C5.48556 25.2505 5.8706 25.9254 6.44549 26.412C7.02037 26.8986 7.74808 27.1654 8.5 27.1654C9.25192 27.1654 9.97963 26.8986 10.5545 26.412C11.1294 25.9254 11.5144 25.2505 11.6416 24.5065C11.7687 23.7625 11.6298 22.9973 11.2494 22.3462C10.8689 21.6951 10.2714 21.2 9.5625 20.9483V12.2335Z"  fill-opacity="0.6"/>
</svg>
