<svg width="32" height="33" viewBox="0 0 32 33" fill="none" xmlns="http://www.w3.org/2000/svg">
    <g clip-path="url(#clip0_23_631)">
        <path d="M16.4993 26.45C16.8573 26.45 17.2007 26.5922 17.4539 26.8454C17.7071 27.0986 17.8493 27.442 17.8493 27.8V29.15C17.8493 29.508 17.7071 29.8514 17.4539 30.1046C17.2007 30.3578 16.8573 30.5 16.4993 30.5C16.1412 30.5 15.7978 30.3578 15.5446 30.1046C15.2914 29.8514 15.1492 29.508 15.1492 29.15V27.8C15.1492 27.442 15.2914 27.0986 15.5446 26.8454C15.7978 26.5922 16.1412 26.45 16.4993 26.45ZM25.0911 23.6825L26.0456 24.6369C26.2916 24.8916 26.4276 25.2326 26.4246 25.5865C26.4215 25.9405 26.2795 26.2791 26.0292 26.5294C25.7789 26.7797 25.4403 26.9217 25.0863 26.9248C24.7323 26.9278 24.3913 26.7918 24.1366 26.5458L23.1821 25.5914C22.9362 25.3368 22.8001 24.9958 22.8032 24.6418C22.8063 24.2878 22.9483 23.9492 23.1986 23.6989C23.4489 23.4486 23.7875 23.3067 24.1415 23.3036C24.4955 23.3005 24.8365 23.4366 25.0911 23.6825ZM7.90738 23.6825C8.15033 23.4404 8.47634 23.2998 8.81919 23.2893C9.16205 23.2789 9.49603 23.3993 9.7533 23.6261C10.0106 23.853 10.1719 24.1692 10.2044 24.5107C10.2369 24.8521 10.1383 25.1932 9.92844 25.4645L9.81638 25.5914L8.86188 26.5458C8.61892 26.788 8.29291 26.9285 7.95006 26.939C7.60721 26.9495 7.27323 26.8291 7.01595 26.6022C6.75867 26.3754 6.59739 26.0591 6.56486 25.7177C6.53234 25.3762 6.631 25.0352 6.84082 24.7638L6.95287 24.6369L7.90738 23.6825ZM16.4993 8.9C18.6476 8.9 20.708 9.75339 22.2271 11.2724C23.7463 12.7915 24.5997 14.8517 24.5997 17C24.5997 19.1483 23.7463 21.2085 22.2271 22.7276C20.708 24.2466 18.6476 25.1 16.4993 25.1C14.3509 25.1 12.2905 24.2466 10.7714 22.7276C9.25224 21.2085 8.3988 19.1483 8.3988 17C8.3988 14.8517 9.25224 12.7915 10.7714 11.2724C12.2905 9.75339 14.3509 8.9 16.4993 8.9ZM5.69865 15.65C6.04276 15.6504 6.37373 15.7821 6.62395 16.0183C6.87417 16.2546 7.02474 16.5774 7.04491 16.9209C7.06508 17.2644 6.95331 17.6026 6.73245 17.8665C6.51159 18.1303 6.19831 18.2999 5.85661 18.3406L5.69865 18.35H4.34858C4.00447 18.3496 3.6735 18.2179 3.42328 17.9817C3.17306 17.7454 3.02249 17.4226 3.00232 17.0791C2.98216 16.7356 3.09392 16.3974 3.31478 16.1335C3.53564 15.8697 3.84892 15.7001 4.19062 15.6595L4.34858 15.65H5.69865ZM28.6499 15.65C29.008 15.65 29.3514 15.7922 29.6046 16.0454C29.8578 16.2986 30 16.642 30 17C30 17.358 29.8578 17.7014 29.6046 17.9546C29.3514 18.2078 29.008 18.35 28.6499 18.35H27.2999C26.9418 18.35 26.5984 18.2078 26.3452 17.9546C26.092 17.7014 25.9498 17.358 25.9498 17C25.9498 16.642 26.092 16.2986 26.3452 16.0454C26.5984 15.7922 26.9418 15.65 27.2999 15.65H28.6499ZM6.95287 7.45415C7.18535 7.22171 7.49465 7.08208 7.82275 7.06145C8.15086 7.04082 8.47521 7.14061 8.73497 7.3421L8.86188 7.45415L9.81638 8.4086C10.0585 8.65154 10.1991 8.97754 10.2096 9.32037C10.22 9.6632 10.0996 9.99716 9.87275 10.2544C9.64589 10.5117 9.32961 10.673 8.98815 10.7055C8.64668 10.738 8.30564 10.6394 8.03428 10.4296L7.90738 10.3175L6.95287 9.36305C6.69977 9.10989 6.55759 8.76657 6.55759 8.4086C6.55759 8.05063 6.69977 7.70731 6.95287 7.45415ZM26.0456 7.45415C26.2987 7.70731 26.4409 8.05063 26.4409 8.4086C26.4409 8.76657 26.2987 9.10989 26.0456 9.36305L25.0911 10.3175C24.9666 10.4464 24.8176 10.5493 24.6529 10.62C24.4882 10.6908 24.311 10.728 24.1318 10.7296C23.9525 10.7311 23.7747 10.697 23.6088 10.6291C23.4429 10.5612 23.2921 10.461 23.1654 10.3342C23.0386 10.2075 22.9384 10.0567 22.8705 9.89084C22.8026 9.72493 22.7685 9.54716 22.77 9.36791C22.7716 9.18866 22.8088 9.01151 22.8796 8.8468C22.9503 8.6821 23.0532 8.53313 23.1821 8.4086L24.1366 7.45415C24.3898 7.20106 24.7331 7.05889 25.0911 7.05889C25.4491 7.05889 25.7925 7.20106 26.0456 7.45415ZM16.4993 3.5C16.8573 3.5 17.2007 3.64223 17.4539 3.89541C17.7071 4.14858 17.8493 4.49196 17.8493 4.85V6.2C17.8493 6.55804 17.7071 6.90142 17.4539 7.15459C17.2007 7.40777 16.8573 7.55 16.4993 7.55C16.1412 7.55 15.7978 7.40777 15.5446 7.15459C15.2914 6.90142 15.1492 6.55804 15.1492 6.2V4.85C15.1492 4.49196 15.2914 4.14858 15.5446 3.89541C15.7978 3.64223 16.1412 3.5 16.4993 3.5Z"  fill-opacity="0.6"/>
    </g>
    <defs>
        <clipPath id="clip0_23_631">
            <rect width="32" height="32"  transform="translate(0 0.5)"/>
        </clipPath>
    </defs>
</svg>
