<svg width="27" height="26" viewBox="0 0 27 26" fill="none" xmlns="http://www.w3.org/2000/svg">
    <path d="M13.5 11.1174C14.9219 11.1172 16.3189 11.4795 17.5504 12.168C18.7819 12.8565 19.8046 13.8468 20.5157 15.0394C21.2267 16.2321 21.6011 17.585 21.6011 18.9622C21.6012 20.3394 21.2269 21.6923 20.516 22.885H24.3C24.658 22.885 25.0014 23.0227 25.2546 23.2679C25.5078 23.5131 25.65 23.8457 25.65 24.1925C25.65 24.5393 25.5078 24.8718 25.2546 25.117C25.0014 25.3622 24.658 25.5 24.3 25.5H2.7C2.34196 25.5 1.99858 25.3622 1.74541 25.117C1.49223 24.8718 1.35 24.5393 1.35 24.1925C1.35 23.8457 1.49223 23.5131 1.74541 23.2679C1.99858 23.0227 2.34196 22.885 2.7 22.885H6.48405C5.77308 21.6923 5.39881 20.3394 5.39886 18.9622C5.39891 17.585 5.77328 16.2321 6.48434 15.0394C7.19539 13.8468 8.21808 12.8565 9.4496 12.168C10.6811 11.4795 12.0781 11.1172 13.5 11.1174ZM13.5 13.7324C12.4286 13.7323 11.3814 14.0409 10.4916 14.619C9.60179 15.197 8.90965 16.0183 8.50322 16.9785C8.09678 17.9386 7.99443 18.9941 8.20919 20.0107C8.42394 21.0274 8.94609 21.9592 9.7092 22.6875L9.92925 22.8837H17.0708C17.8928 22.181 18.4746 21.2525 18.7386 20.2218C19.0026 19.1911 18.9364 18.107 18.5488 17.1136C18.1612 16.1202 17.4705 15.2646 16.5687 14.6606C15.6668 14.0567 14.5965 13.7329 13.5 13.7324ZM25.65 17.6549C26.008 17.6549 26.3514 17.7927 26.6046 18.0379C26.8578 18.2831 27 18.6157 27 18.9624C27 19.3092 26.8578 19.6418 26.6046 19.887C26.3514 20.1322 26.008 20.27 25.65 20.27H24.3C23.942 20.27 23.5986 20.1322 23.3454 19.887C23.0922 19.6418 22.95 19.3092 22.95 18.9624C22.95 18.6157 23.0922 18.2831 23.3454 18.0379C23.5986 17.7927 23.942 17.6549 24.3 17.6549H25.65ZM2.7 17.6549C3.05804 17.6549 3.40142 17.7927 3.65459 18.0379C3.90777 18.2831 4.05 18.6157 4.05 18.9624C4.05 19.3092 3.90777 19.6418 3.65459 19.887C3.40142 20.1322 3.05804 20.27 2.7 20.27H1.35C0.991958 20.27 0.64858 20.1322 0.395406 19.887C0.142232 19.6418 0 19.3092 0 18.9624C0 18.6157 0.142232 18.2831 0.395406 18.0379C0.64858 17.7927 0.991958 17.6549 1.35 17.6549H2.7ZM3.95415 9.71703C4.18661 9.4919 4.4959 9.35667 4.82398 9.33669C5.15207 9.3167 5.47641 9.41335 5.73615 9.6085L5.86305 9.71703L6.8175 10.6414C7.05962 10.8767 7.20019 11.1925 7.21066 11.5245C7.22113 11.8566 7.10071 12.18 6.87386 12.4292C6.64702 12.6783 6.33076 12.8345 5.98931 12.866C5.64786 12.8975 5.30684 12.802 5.0355 12.5988L4.9086 12.4903L3.95415 11.5658C3.70106 11.3207 3.55889 10.9881 3.55889 10.6414C3.55889 10.2947 3.70106 9.96222 3.95415 9.71703ZM23.0458 9.71703C23.2989 9.96222 23.4411 10.2947 23.4411 10.6414C23.4411 10.9881 23.2989 11.3207 23.0458 11.5658L22.0914 12.4903C21.8368 12.7284 21.4958 12.8602 21.1418 12.8572C20.7878 12.8543 20.4492 12.7168 20.1989 12.4743C19.9486 12.2319 19.8067 11.904 19.8036 11.5611C19.8005 11.2183 19.9366 10.888 20.1825 10.6414L21.1369 9.71703C21.3901 9.4719 21.7334 9.3342 22.0914 9.3342C22.4494 9.3342 22.7927 9.4719 23.0458 9.71703ZM14.4544 0.883476L17.3178 3.65671C17.4467 3.77732 17.5496 3.9216 17.6203 4.08112C17.6911 4.24064 17.7283 4.41221 17.7299 4.58582C17.7314 4.75944 17.6973 4.93161 17.6294 5.0923C17.5615 5.25298 17.4613 5.39897 17.3345 5.52174C17.2078 5.6445 17.057 5.74159 16.8911 5.80733C16.7252 5.87308 16.5475 5.90616 16.3682 5.90465C16.189 5.90314 16.0118 5.86707 15.8471 5.79855C15.6824 5.73002 15.5334 5.63041 15.4089 5.50553L14.85 4.96422V8.50235C14.85 8.84912 14.7078 9.18169 14.4546 9.4269C14.2014 9.6721 13.858 9.80986 13.5 9.80986C13.142 9.80986 12.7986 9.6721 12.5454 9.4269C12.2922 9.18169 12.15 8.84912 12.15 8.50235V4.96422L11.5911 5.50553C11.3365 5.7437 10.9955 5.87549 10.6415 5.87252C10.2875 5.86954 9.94895 5.73203 9.69864 5.4896C9.44834 5.24718 9.30637 4.91924 9.30329 4.57641C9.30021 4.23359 9.43629 3.90331 9.6822 3.65671L12.5442 0.883476C12.6696 0.761908 12.8185 0.665467 12.9824 0.599668C13.1462 0.533868 13.3219 0.5 13.4993 0.5C13.6767 0.5 13.8524 0.533868 14.0163 0.599668C14.1802 0.665467 14.3291 0.761908 14.4544 0.883476Z" fill-opacity="0.6"/>
</svg>
