<svg width="27" height="26" viewBox="0 0 27 26" fill="none" xmlns="http://www.w3.org/2000/svg">
    <path d="M13.5 11.1179C14.9221 11.1177 16.3192 11.48 17.5508 12.1685C18.7825 12.8569 19.8053 13.8472 20.5164 15.0398C21.2276 16.2324 21.602 17.5853 21.602 18.9624C21.6021 20.3395 21.2278 21.6924 20.5167 22.8851H24.3012C24.6593 22.8851 25.0027 23.0228 25.2559 23.268C25.5091 23.5132 25.6513 23.8458 25.6513 24.1925C25.6513 24.5393 25.5091 24.8719 25.2559 25.1171C25.0027 25.3622 24.6593 25.5 24.3012 25.5H2.6988C2.34072 25.5 1.99731 25.3622 1.7441 25.1171C1.4909 24.8719 1.34865 24.5393 1.34865 24.1925C1.34865 23.8458 1.4909 23.5132 1.7441 23.268C1.99731 23.0228 2.34072 22.8851 2.6988 22.8851H6.48327C5.77222 21.6924 5.39791 20.3395 5.39796 18.9624C5.39801 17.5853 5.77242 16.2324 6.48356 15.0398C7.1947 13.8472 8.2175 12.8569 9.44915 12.1685C10.6808 11.48 12.0779 11.1177 13.5 11.1179ZM13.5 13.7328C12.4285 13.7328 11.3811 14.0414 10.4912 14.6194C9.60136 15.1974 8.90914 16.0187 8.50266 16.9788C8.09619 17.9389 7.99382 18.9944 8.2086 20.011C8.42338 21.0275 8.94558 21.9593 9.70878 22.6876L9.92885 22.8838H17.0711C17.8933 22.1811 18.4751 21.2527 18.7392 20.222C19.0032 19.1913 18.937 18.1072 18.5493 17.1139C18.1617 16.1205 17.471 15.265 16.569 14.661C15.667 14.0571 14.5966 13.7333 13.5 13.7328ZM25.6513 17.6552C25.9955 17.6556 26.3265 17.7832 26.5767 18.012C26.8269 18.2407 26.9775 18.5534 26.9977 18.8861C27.0178 19.2187 26.9061 19.5463 26.6852 19.8019C26.4643 20.0574 26.151 20.2216 25.8093 20.261L25.6513 20.2701H24.3012C23.9571 20.2698 23.6261 20.1422 23.3758 19.9134C23.1256 19.6846 22.975 19.372 22.9549 19.0393C22.9347 18.7066 23.0465 18.3791 23.2673 18.1235C23.4882 17.868 23.8015 17.7037 24.1432 17.6644L24.3012 17.6552H25.6513ZM2.6988 17.6552C3.04293 17.6556 3.37392 17.7832 3.62415 18.012C3.87438 18.2407 4.02497 18.5534 4.04513 18.8861C4.0653 19.2187 3.95353 19.5463 3.73266 19.8019C3.51179 20.0574 3.19849 20.2216 2.85677 20.261L2.6988 20.2701H1.34865C1.00453 20.2698 0.673536 20.1422 0.423304 19.9134C0.173073 19.6846 0.0224897 19.372 0.0023223 19.0393C-0.017845 18.7066 0.0939255 18.3791 0.314797 18.1235C0.535668 17.868 0.848969 17.7037 1.19069 17.6644L1.34865 17.6552H2.6988ZM5.8622 9.71761L6.81676 10.642C7.0627 10.8886 7.19879 11.2188 7.19571 11.5617C7.19264 11.9045 7.05064 12.2324 6.80031 12.4748C6.54998 12.7172 6.21135 12.8547 5.85735 12.8577C5.50334 12.8607 5.16229 12.7289 4.90765 12.4907L3.95309 11.5664C3.70715 11.3198 3.57106 10.9895 3.57414 10.6467C3.57722 10.3039 3.71921 9.97596 3.96954 9.73354C4.21987 9.49113 4.5585 9.35362 4.91251 9.35064C5.26651 9.34766 5.60756 9.47945 5.8622 9.71761ZM21.1378 9.71761C21.3808 9.48312 21.7068 9.34698 22.0497 9.33684C22.3925 9.3267 22.7265 9.44333 22.9838 9.66303C23.2411 9.88272 23.4024 10.189 23.4349 10.5197C23.4675 10.8504 23.3688 11.1807 23.159 11.4435L23.0469 11.5664L22.0924 12.4907C21.8494 12.7252 21.5234 12.8614 21.1805 12.8715C20.8376 12.8817 20.5036 12.765 20.2463 12.5453C19.989 12.3256 19.8277 12.0193 19.7952 11.6886C19.7627 11.358 19.8613 11.0277 20.0712 10.7649L20.1832 10.642L21.1378 9.71761ZM13.5 0.5C13.8309 0.50008 14.1503 0.617835 14.3974 0.830904C14.6446 1.04397 14.8023 1.33752 14.8407 1.6558L14.8502 1.80877V5.34677L15.4091 4.80417C15.6515 4.56718 15.9783 4.42888 16.3226 4.41757C16.6668 4.40626 17.0025 4.5228 17.261 4.74333C17.5194 4.96385 17.681 5.2717 17.7127 5.60384C17.7445 5.93599 17.6439 6.26732 17.4316 6.53002L17.3182 6.65423L14.4559 9.42736C14.2234 9.65247 13.9141 9.7877 13.586 9.80768C13.2579 9.82766 12.9335 9.73102 12.6737 9.53588L12.5454 9.42736L9.68178 6.65423C9.43706 6.41948 9.29424 6.10304 9.28256 5.76967C9.27088 5.43629 9.39122 5.1112 9.61895 4.86094C9.84668 4.61067 10.1646 4.45416 10.5076 4.42343C10.8506 4.3927 11.1927 4.49009 11.464 4.69565L11.5909 4.80417L12.1499 5.34677V1.80877C12.1499 1.46201 12.2921 1.12945 12.5453 0.884255C12.7985 0.639058 13.1419 0.501308 13.5 0.501308V0.5Z"  fill-opacity="0.6"/>
</svg>
