<svg width="32" height="33" viewBox="0 0 32 33" fill="none" xmlns="http://www.w3.org/2000/svg">
    <path d="M6.6596 11.1664H17.9629C18.5805 11.1782 19.1892 11.0173 19.7207 10.7017C20.2522 10.386 20.6854 9.92817 20.9719 9.37941C21.2584 8.83065 21.3867 8.21272 21.3425 7.59492C21.2983 6.97713 21.0833 6.38389 20.7216 5.88177C20.3599 5.37965 19.8659 4.98849 19.2949 4.75217C18.7239 4.51585 18.0986 4.44372 17.489 4.54386C16.8794 4.64401 16.3097 4.91247 15.8438 5.31913C15.3778 5.7258 15.0341 6.25458 14.8512 6.84618M4 16.5H24.6119C25.2295 16.4881 25.8382 16.6491 26.3697 16.9647C26.9012 17.2803 27.3344 17.7382 27.6209 18.287C27.9074 18.8357 28.0357 19.4537 27.9915 20.0715C27.9473 20.6893 27.7323 21.2825 27.3706 21.7846C27.0089 22.2867 26.5149 22.6779 25.9439 22.9142C25.3729 23.1505 24.7476 23.2227 24.138 23.1225C23.5284 23.0224 22.9587 22.7539 22.4928 22.3473C22.0268 21.9406 21.6831 21.4118 21.5002 20.8202M5.3298 21.8336H12.6437C13.2613 21.8218 13.87 21.9827 14.4015 22.2983C14.933 22.614 15.3662 23.0718 15.6527 23.6206C15.9392 24.1693 16.0675 24.7873 16.0233 25.4051C15.9791 26.0229 15.7641 26.6161 15.4024 27.1182C15.0407 27.6204 14.5467 28.0115 13.9757 28.2478C13.4047 28.4841 12.7794 28.5563 12.1698 28.4561C11.5602 28.356 10.9905 28.0875 10.5246 27.6809C10.0586 27.2742 9.71492 26.7454 9.53197 26.1538" stroke="#212121" stroke-opacity="0.6" stroke-width="2.66667" stroke-linecap="round" stroke-linejoin="round"/>
</svg>
